<?xml version="1.0" standalone="no"?>
<!DOCTYPE svg PUBLIC "-//W3C//DTD SVG 20010904//EN"
 "http://www.w3.org/TR/2001/REC-SVG-20010904/DTD/svg10.dtd">
<svg version="1.0" xmlns="http://www.w3.org/2000/svg"
 width="48.000000pt" height="48.000000pt" viewBox="0 0 48.000000 48.000000"
 preserveAspectRatio="xMidYMid meet">

<g transform="translate(0.000000,48.000000) scale(0.100000,-0.100000)"
fill="#000000" stroke="none">
<path d="M172 429 c-48 -14 -109 -80 -123 -131 -23 -89 12 -182 88 -229 57
-36 154 -34 210 3 62 41 88 90 88 168 0 77 -26 127 -85 166 -43 29 -125 39
-178 23z m131 -43 c103 -43 128 -177 48 -257 -112 -113 -296 -12 -267 146 18
94 128 150 219 111z"/>
<path d="M200 340 c-11 -11 -20 -28 -20 -38 0 -10 -5 -23 -11 -29 -5 -5 -9
-32 -7 -59 l3 -49 75 0 75 0 3 49 c2 27 -2 54 -7 59 -6 6 -11 19 -11 29 0 24
-35 58 -60 58 -11 0 -29 -9 -40 -20z m68 -37 c3 -20 -1 -23 -27 -23 -23 0 -31
5 -31 18 0 25 10 33 35 30 12 -2 21 -12 23 -25z m-12 -74 c10 -17 -13 -36 -27
-22 -12 12 -4 33 11 33 5 0 12 -5 16 -11z"/>
</g>
</svg>
