<svg width="64" height="39" viewBox="0 0 64 39" fill="none" xmlns="http://www.w3.org/2000/svg">
<path d="M62.7289 35.0177C62.6525 34.8437 62.5813 34.6993 62.5151 34.5837C61.4209 32.5006 59.3301 29.9436 56.2438 26.9121L56.1785 26.8427L56.146 26.8087L56.1129 26.7738H56.0798C54.6789 25.3622 53.7919 24.413 53.4204 23.9271C52.7409 23.0014 52.5886 22.0644 52.9601 21.1151C53.2224 20.3978 54.2084 18.8829 55.9152 16.5685C56.8129 15.3419 57.5239 14.3589 58.0493 13.6183C61.8365 8.29569 63.4784 4.89449 62.9745 3.41336L62.779 3.06723C62.6475 2.85885 62.3082 2.66822 61.7615 2.49437C61.2138 2.32088 60.5135 2.29219 59.6596 2.40781L50.2036 2.47686C50.0503 2.41948 49.8315 2.42483 49.5468 2.49437C49.2621 2.56391 49.1195 2.5988 49.1195 2.5988L48.9549 2.68573L48.8244 2.79016C48.715 2.85922 48.5945 2.98067 48.463 3.15428C48.3322 3.32728 48.2231 3.53031 48.1354 3.76167C47.1059 6.56166 45.9355 9.16496 44.6219 11.5714C43.8118 13.0064 43.068 14.25 42.3888 15.3029C41.7102 16.3555 41.1411 17.131 40.6817 17.6282C40.2216 18.1258 39.8067 18.5244 39.4337 18.8256C39.0616 19.1268 38.7775 19.2541 38.5804 19.2075C38.3834 19.161 38.1976 19.1148 38.0217 19.0686C37.7155 18.8602 37.4693 18.5768 37.2835 18.2182C37.0969 17.8595 36.9714 17.4081 36.9058 16.8643C36.8402 16.3201 36.8017 15.8521 36.7907 15.4585C36.7803 15.0655 36.785 14.5095 36.8074 13.7922C36.8301 13.0746 36.8402 12.589 36.8402 12.3344C36.8402 11.455 36.8566 10.5005 36.8891 9.47072C36.9222 8.44096 36.949 7.62509 36.9714 7.02402C36.9938 6.42232 37.0042 5.78579 37.0042 5.11469C37.0042 4.44359 36.9654 3.91728 36.8891 3.5353C36.8137 3.15379 36.698 2.78348 36.5454 2.42446C36.3918 2.06582 36.167 1.78838 35.8722 1.59143C35.5767 1.39472 35.2094 1.23862 34.7724 1.12264C33.612 0.845083 32.1344 0.694938 30.3392 0.671595C26.268 0.625397 23.652 0.903317 22.4918 1.50499C22.0321 1.75921 21.6162 2.10655 21.2443 2.54592C20.8501 3.0552 20.7952 3.33312 21.0797 3.37883C22.3933 3.58685 23.3232 4.08446 23.8705 4.87116L24.0677 5.28806C24.2211 5.58882 24.3743 6.12132 24.5276 6.88482C24.6807 7.64829 24.7795 8.49289 24.8229 9.41806C24.9322 11.1076 24.9322 12.5539 24.8229 13.757C24.7133 14.9606 24.6098 15.8975 24.511 16.5686C24.4123 17.2397 24.2646 17.7835 24.0677 18.1999C23.8705 18.6165 23.7393 18.871 23.6735 18.9634C23.6078 19.0558 23.5531 19.1141 23.5096 19.1369C23.2251 19.2522 22.9292 19.3109 22.6229 19.3109C22.3162 19.3109 21.9443 19.1487 21.5066 18.8246C21.069 18.5005 20.6149 18.0553 20.1441 17.4882C19.6734 16.9211 19.1426 16.1285 18.5513 15.1105C17.9606 14.0924 17.3476 12.8892 16.7128 11.5008L16.1875 10.4939C15.8592 9.84612 15.4107 8.90296 14.8416 7.66519C14.2721 6.42696 13.7687 5.22919 13.3311 4.07216C13.1562 3.58624 12.8934 3.21628 12.5432 2.96171L12.3789 2.85727C12.2696 2.76488 12.0942 2.66676 11.8537 2.56221C11.6127 2.45778 11.3613 2.38289 11.0984 2.33681L2.1018 2.40586C1.18247 2.40586 0.558689 2.62604 0.230237 3.06577L0.098788 3.27379C0.033121 3.38965 0 3.57469 0 3.82939C0 4.08396 0.065667 4.39642 0.197116 4.76636C1.51046 8.02946 2.93869 11.1764 4.4818 14.2078C6.02492 17.2391 7.36586 19.681 8.50381 21.5311C9.642 23.3826 10.8022 25.13 11.9843 26.7724C13.1664 28.4155 13.9489 29.4685 14.3317 29.9311C14.715 30.3945 15.0161 30.741 15.235 30.9724L16.056 31.8053C16.5813 32.3608 17.3528 33.026 18.3707 33.8011C19.3888 34.5767 20.5159 35.34 21.7527 36.0927C22.9897 36.8443 24.4287 37.4573 26.0706 37.9317C27.7123 38.4063 29.3101 38.597 30.8644 38.505H34.6406C35.4061 38.435 35.9863 38.1807 36.3808 37.7413L36.5113 37.5673C36.5993 37.429 36.6816 37.2147 36.7573 36.9257C36.8342 36.6367 36.8724 36.318 36.8724 35.9713C36.85 34.9763 36.9216 34.0797 37.0855 33.2816C37.2492 32.4835 37.4355 31.8819 37.6442 31.4767C37.8527 31.0718 38.0879 30.7302 38.3499 30.4532C38.6123 30.1757 38.7993 30.0076 38.909 29.9497C39.0181 29.8914 39.1051 29.8519 39.1707 29.8282C39.696 29.6432 40.3143 29.8224 41.0263 30.3667C41.738 30.9105 42.4055 31.5819 43.0295 32.38C43.6535 33.1787 44.403 34.075 45.2784 35.0697C46.1546 36.065 46.9205 36.8047 47.5767 37.2913L48.2332 37.708C48.6718 37.9857 49.2409 38.2403 49.9416 38.4717C50.6409 38.703 51.2536 38.761 51.7795 38.6453L60.1849 38.5067C61.0164 38.5067 61.6631 38.361 62.1219 38.0723C62.5819 37.783 62.855 37.4643 62.943 37.118C63.0309 36.771 63.0357 36.3773 62.9597 35.937C62.8818 35.498 62.8052 35.191 62.7289 35.0177Z" fill="white"/>
</svg>
