<svg width="350" height="60" viewBox="0 0 350 60" fill="none" xmlns="http://www.w3.org/2000/svg">
<path d="M243.611 17.1594C241.448 14.4418 237.455 13.3333 229.83 13.3333H202.151C194.351 13.3333 190.291 14.5133 188.137 17.4065C186.036 20.2274 186.036 24.3838 186.036 30.1363V41.1006C186.036 52.245 188.528 57.9033 202.151 57.9033H229.83C236.443 57.9033 240.107 56.9253 242.478 54.527C244.909 52.0677 245.946 48.0523 245.946 41.1006V30.1363C245.946 24.0698 245.784 19.8889 243.611 17.1594ZM224.499 37.1322L211.929 44.0763C211.648 44.2316 211.341 44.3086 211.034 44.3086C210.687 44.3086 210.34 44.2097 210.033 44.0132C209.455 43.6428 209.102 42.9803 209.102 42.2656V28.4219C209.102 27.7085 209.454 27.0466 210.031 26.676C210.608 26.3054 211.326 26.2801 211.925 26.609L224.494 33.5084C225.134 33.8594 225.535 34.5572 225.536 35.3186C225.537 36.0807 225.137 36.7795 224.499 37.1322Z" fill="white"/>
<path d="M350 15.787C347.767 16.8023 345.534 17.4363 343.302 17.691C345.823 16.0921 347.528 13.8332 348.417 10.9145C346.11 12.3609 343.65 13.3505 341.033 13.8837C338.728 11.2949 335.896 9.99998 332.534 9.99998C329.317 9.99998 326.574 11.199 324.304 13.5977C322.036 15.9962 320.902 18.8957 320.902 22.2965C320.902 23.2101 320.997 24.1495 321.19 25.1139C316.436 24.8601 311.976 23.5975 307.81 21.3259C303.645 19.0541 300.11 16.0274 297.205 12.2458C296.148 14.1489 295.62 16.2178 295.62 18.4512C295.62 20.5578 296.088 22.5124 297.025 24.3145C297.961 26.1162 299.222 27.5754 300.806 28.6923C298.933 28.6161 297.181 28.0956 295.548 27.1311V27.2834C295.548 30.2532 296.431 32.8605 298.195 35.1074C299.96 37.354 302.187 38.7681 304.876 39.3521C303.867 39.631 302.847 39.7706 301.814 39.7706C301.142 39.7706 300.41 39.7073 299.618 39.5813C300.362 42.0427 301.73 44.066 303.723 45.6533C305.716 47.2393 307.973 48.057 310.494 48.109C306.268 51.611 301.454 53.362 296.053 53.362C295.02 53.362 294.084 53.3123 293.243 53.2103C298.646 56.89 304.6 58.73 311.106 58.73C315.236 58.73 319.113 58.039 322.737 56.6553C326.363 55.2727 329.46 53.4197 332.029 51.0967C334.598 48.7747 336.813 46.1033 338.674 43.083C340.534 40.0627 341.92 36.9094 342.833 33.6227C343.745 30.3353 344.201 27.0429 344.201 23.7428C344.201 23.0321 344.189 22.4993 344.165 22.1438C346.447 20.3934 348.391 18.2737 350 15.787Z" fill="white"/>
<path d="M139.89 0.012484L132.53 0C124.262 0 118.918 5.7957 118.918 14.7661V21.5742H111.518C110.878 21.5742 110.36 22.1223 110.36 22.7983V32.6625C110.36 33.3387 110.879 33.886 111.518 33.886H118.918V58.7767C118.918 59.4527 119.436 60 120.075 60H129.73C130.37 60 130.888 59.452 130.888 58.7767V33.886H139.54C140.18 33.886 140.698 33.3387 140.698 32.6625L140.701 22.7983C140.701 22.4737 140.579 22.1629 140.362 21.9331C140.146 21.7034 139.85 21.5742 139.543 21.5742H130.888V15.8029C130.888 13.0289 131.513 11.6207 134.931 11.6207L139.889 11.6189C140.528 11.6189 141.046 11.0708 141.046 10.3954V1.23592C141.046 0.561157 140.529 0.0137324 139.89 0.012484Z" fill="white"/>
<path d="M62.7289 51.0177C62.6525 50.8437 62.5813 50.6993 62.5151 50.5837C61.4209 48.5006 59.3301 45.9436 56.2438 42.9121L56.1785 42.8427L56.146 42.8087L56.1129 42.7738H56.0798C54.6789 41.3622 53.7919 40.413 53.4204 39.9271C52.7409 39.0014 52.5886 38.0644 52.9601 37.1151C53.2224 36.3978 54.2084 34.8829 55.9152 32.5685C56.8129 31.3419 57.5239 30.3589 58.0493 29.6183C61.8365 24.2957 63.4784 20.8945 62.9745 19.4134L62.779 19.0672C62.6475 18.8589 62.3082 18.6682 61.7615 18.4944C61.2138 18.3209 60.5135 18.2922 59.6596 18.4078L50.2036 18.4769C50.0503 18.4195 49.8315 18.4248 49.5468 18.4944C49.262 18.5639 49.1195 18.5988 49.1195 18.5988L48.9549 18.6857L48.8244 18.7902C48.715 18.8592 48.5945 18.9807 48.463 19.1543C48.3322 19.3273 48.2231 19.5303 48.1354 19.7617C47.1059 22.5617 45.9355 25.165 44.6219 27.5714C43.8118 29.0064 43.068 30.25 42.3888 31.3029C41.7102 32.3555 41.1411 33.131 40.6817 33.6282C40.2216 34.1258 39.8067 34.5244 39.4337 34.8256C39.0616 35.1268 38.7775 35.2541 38.5804 35.2075C38.3834 35.161 38.1976 35.1148 38.0217 35.0686C37.7155 34.8602 37.4693 34.5768 37.2835 34.2182C37.0969 33.8595 36.9714 33.4081 36.9058 32.8643C36.8402 32.3201 36.8017 31.8521 36.7907 31.4585C36.7803 31.0655 36.785 30.5095 36.8074 29.7922C36.8301 29.0746 36.8402 28.589 36.8402 28.3344C36.8402 27.455 36.8566 26.5005 36.8891 25.4707C36.9222 24.441 36.949 23.6251 36.9714 23.024C36.9938 22.4223 37.0042 21.7858 37.0042 21.1147C37.0042 20.4436 36.9654 19.9173 36.8891 19.5353C36.8137 19.1538 36.698 18.7835 36.5454 18.4245C36.3918 18.0658 36.167 17.7884 35.8722 17.5914C35.5767 17.3947 35.2094 17.2386 34.7724 17.1226C33.612 16.8451 32.1344 16.6949 30.3392 16.6716C26.268 16.6254 23.652 16.9033 22.4918 17.505C22.0321 17.7592 21.6162 18.1065 21.2443 18.5459C20.8501 19.0552 20.7952 19.3331 21.0797 19.3788C22.3933 19.5868 23.3232 20.0845 23.8705 20.8712L24.0677 21.2881C24.2211 21.5888 24.3743 22.1213 24.5276 22.8848C24.6807 23.6483 24.7795 24.4929 24.8229 25.4181C24.9322 27.1076 24.9322 28.5539 24.8229 29.757C24.7133 30.9606 24.6098 31.8975 24.511 32.5686C24.4123 33.2397 24.2646 33.7835 24.0677 34.1999C23.8705 34.6165 23.7393 34.871 23.6735 34.9634C23.6078 35.0558 23.5531 35.1141 23.5096 35.1369C23.2251 35.2522 22.9292 35.3109 22.6229 35.3109C22.3162 35.3109 21.9443 35.1487 21.5066 34.8246C21.069 34.5005 20.6149 34.0553 20.1441 33.4882C19.6734 32.9211 19.1426 32.1285 18.5513 31.1105C17.9606 30.0924 17.3476 28.8892 16.7128 27.5008L16.1875 26.4939C15.8592 25.8461 15.4107 24.903 14.8416 23.6652C14.2721 22.427 13.7687 21.2292 13.3311 20.0722C13.1562 19.5862 12.8934 19.2163 12.5432 18.9617L12.3789 18.8573C12.2696 18.7649 12.0942 18.6668 11.8537 18.5622C11.6127 18.4578 11.3613 18.3829 11.0984 18.3368L2.1018 18.4059C1.18247 18.4059 0.558689 18.626 0.230237 19.0658L0.098788 19.2738C0.033121 19.3897 0 19.5747 0 19.8294C0 20.084 0.065667 20.3964 0.197116 20.7664C1.51046 24.0295 2.93869 27.1764 4.4818 30.2078C6.02492 33.2391 7.36586 35.681 8.50381 37.5311C9.642 39.3826 10.8022 41.13 11.9843 42.7724C13.1664 44.4155 13.9489 45.4685 14.3317 45.9311C14.715 46.3945 15.0161 46.741 15.235 46.9724L16.056 47.8053C16.5813 48.3608 17.3528 49.026 18.3707 49.8011C19.3888 50.5767 20.5159 51.34 21.7527 52.0927C22.9896 52.8443 24.4287 53.4573 26.0706 53.9317C27.7123 54.4063 29.3101 54.597 30.8644 54.505H34.6406C35.4061 54.435 35.9863 54.1807 36.3808 53.7413L36.5113 53.5673C36.5993 53.429 36.6816 53.2147 36.7573 52.9257C36.8342 52.6367 36.8724 52.318 36.8724 51.9713C36.85 50.9763 36.9216 50.0797 37.0855 49.2816C37.2492 48.4835 37.4355 47.8819 37.6442 47.4767C37.8527 47.0718 38.0879 46.7302 38.3499 46.4532C38.6123 46.1757 38.7993 46.0076 38.909 45.9497C39.0181 45.8914 39.1051 45.8519 39.1707 45.8282C39.696 45.6432 40.3143 45.8224 41.0263 46.3667C41.738 46.9105 42.4055 47.5819 43.0295 48.38C43.6535 49.1787 44.403 50.075 45.2784 51.0697C46.1546 52.065 46.9205 52.8047 47.5767 53.2913L48.2332 53.708C48.6718 53.9857 49.2409 54.2403 49.9416 54.4717C50.6409 54.703 51.2536 54.761 51.7795 54.6453L60.1849 54.5067C61.0164 54.5067 61.6631 54.361 62.1219 54.0723C62.5819 53.783 62.855 53.4643 62.943 53.118C63.0309 52.771 63.0357 52.3773 62.9597 51.937C62.8818 51.498 62.8052 51.191 62.7289 51.0177Z" fill="white"/>
</svg>
